<?xml version="1.0" encoding="utf-8"?>
<!-- Generator: Adobe Illustrator 19.1.0, SVG Export Plug-In . SVG Version: 6.00 Build 0)  -->
<svg version="1.1" id="Layer_1" xmlns="http://www.w3.org/2000/svg" xmlns:xlink="http://www.w3.org/1999/xlink" x="0px" y="0px"
	 viewBox="0 0 202 106.8" style="enable-background:new 0 0 202 106.8;" xml:space="preserve">
<style type="text/css">
	.st0{fill:#808080;}
	.st1{fill:#808080;stroke:#808080;stroke-width:3;stroke-miterlimit:10;}
</style>
<g>
	<path class="st1" d="M24.5,104.5h-21V2.6h21V104.5z"/>
	<path class="st1" d="M73.7,67.2H57v37.3h-21V2.6h37.9c12.1,0,21.4,2.7,27.9,8c6.5,5.4,9.8,12.9,9.8,22.7c0,7-1.5,12.8-4.5,17.4
		c-3,4.6-7.6,8.3-13.7,11.1l22,41.6v1H92.8L73.7,67.2z M57,50.2h16.9c5.3,0,9.4-1.3,12.3-4c2.9-2.7,4.3-6.4,4.3-11.1
		c0-4.8-1.4-8.5-4.1-11.3c-2.7-2.8-6.9-4.1-12.6-4.1H57V50.2z"/>
	<path class="st1" d="M157.2,67.2h-16.7v37.3h-21V2.6h37.9c12.1,0,21.4,2.7,27.9,8c6.5,5.4,9.8,12.9,9.8,22.7c0,7-1.5,12.8-4.5,17.4
		c-3,4.6-7.6,8.3-13.7,11.1l22,41.6v1h-22.6L157.2,67.2z M140.5,50.2h16.9c5.3,0,9.4-1.3,12.3-4c2.9-2.7,4.3-6.4,4.3-11.1
		c0-4.8-1.4-8.5-4.1-11.3c-2.7-2.8-6.9-4.1-12.6-4.1h-16.8V50.2z"/>
</g>
</svg>
