<svg version="1.1" id="Layer_1" xmlns="http://www.w3.org/2000/svg" xmlns:xlink="http://www.w3.org/1999/xlink" x="0px" y="0px"
	 width="226.777px" height="226.777px" viewBox="0 0 226.777 226.777" enable-background="new 0 0 226.777 226.777"
	 xml:space="preserve">
<path fill="grey" d="M133.39,84.311c0,9.911-8.034,17.944-17.943,17.944c-5.784,0-10.914-2.748-14.195-6.995l-3.792-5.811
	C86.098,70.275,62.115,61.777,40.844,70.428c-23.422,9.528-34.687,36.24-25.159,59.661c9.529,23.428,36.241,34.687,59.664,25.161
	c9.388-3.819,16.818-10.403,21.744-18.429c0,0,3.75-5.975,5-7.284c1.516-1.586,6.064-4.299,6.064-4.299
	c9.177-3.736,19.649,0.679,23.382,9.859c1.873,4.605,1.692,9.534-0.109,13.776l-1.631,4.859
	c-6.542,11.583-7.935,25.928-2.533,39.205c9.391,23.083,35.713,34.181,58.792,24.795c23.078-9.392,34.177-35.715,24.788-58.792
	c-6.572-16.159-21.448-26.434-37.697-27.928c0,0-6.008,0.253-8.01,0.339c-3.434,0.146-3.381-0.545-7.587-1.815
	c-4.851-1.582-6.949-3.151-9.021-8.241c-3.734-9.181,0.266-20.84,9.445-24.573l3.929-2.05c2.284-0.529,6.581-0.855,6.581-0.855
	c24.773,0,44.86-20.084,44.86-44.86c0-24.775-20.087-44.859-44.86-44.859c-24.777,0-44.859,20.084-44.859,44.859
	c0,6.587,1.43,12.835,3.979,18.471c0,0,3.626,6.536,4.396,8.893C132.629,78.251,133.39,84.311,133.39,84.311z"/>
</svg>
